Ek Thi Daayan (2013)


 
http://www.shotpix.com/images/11719834236445816619.jpg




[B]INFO[/B]

[CODE]General
Format : MPEG-PS
File size : 751 MiB
Duration : 2h 0mn
Overall bit rate : 869 Kbps

Video
ID : 224 (0xE0)
Format : MPEG Video
Format version : Version 2
Format settings, BVOP : Yes
Format settings, Matrix : Custom
Format settings, GOP : Variable
Duration : 2h 0mn
Bit rate : 788 Kbps
Maximum bit rate : 1 150 Kbps
Width : 352 pixels
Height : 288 pixels
Display aspect ratio : 1.222
Frame rate : 25.000 fps
Standard : PAL
Color space : YUV
Bit depth : 8 bits
Scan type : Progressive
Compression mode : Lossy
Bits/(Pixel*Frame) : 0.311
Stream size : 681 MiB (91%)[/CODE]

[CODE]Audio
ID : 192 (0xC0)
Format : MPEG Audio
Format version : Version 1
Format profile : Layer 2
Duration : 2h 0mn
Bit rate mode : Constant
Bit rate : 64.0 Kbps
Channel(s) : 2 channels
Sampling rate : 48.0 KHz
Compression mode : Lossy
Stream size : 55.3 MiB (7%)[/CODE]







SCREEN SHOTS
 
http://www.shotpix.com/images/56686768826206608258.jpg